<?xml version="1.0" encoding="UTF-8" standalone="no"?>
<!-- Created with Inkscape (http://www.inkscape.org/) -->

<svg
   xmlns:dc="http://purl.org/dc/elements/1.1/"
   xmlns:cc="http://creativecommons.org/ns#"
   xmlns:rdf="http://www.w3.org/1999/02/22-rdf-syntax-ns#"
   xmlns:svg="http://www.w3.org/2000/svg"
   xmlns="http://www.w3.org/2000/svg"
   xmlns:sodipodi="http://sodipodi.sourceforge.net/DTD/sodipodi-0.dtd"
   xmlns:inkscape="http://www.inkscape.org/namespaces/inkscape"
   width="1000"
   height="500"
   viewBox="0 0 264583.33 66145.837"
   version="1.1"
   id="svg8"
   inkscape:version="0.92.3 (2405546, 2018-03-11)"
   sodipodi:docname="button.svg"
   inkscape:export-xdpi="96"
   inkscape:export-ydpi="96">
  <defs
     id="defs2" />
  <sodipodi:namedview
     id="base"
     pagecolor="#ffffff"
     bordercolor="#666666"
     borderopacity="1.0"
     inkscape:pageopacity="0.0"
     inkscape:pageshadow="2"
     inkscape:zoom="0.70710678"
     inkscape:cx="249.96791"
     inkscape:cy="473.5723"
     inkscape:document-units="mm"
     inkscape:current-layer="layer1"
     showgrid="false"
     units="px"
     showguides="false"
     inkscape:guide-bbox="true"
     inkscape:window-width="1920"
     inkscape:window-height="1012"
     inkscape:window-x="-8"
     inkscape:window-y="-8"
     inkscape:window-maximized="1">
    <sodipodi:guide
       position="132291.66,64822.92"
       orientation="1,0"
       id="guide818"
       inkscape:locked="false" />
    <sodipodi:guide
       position="221456.25,33205.21"
       orientation="0,1"
       id="guide820"
       inkscape:locked="false" />
    <sodipodi:guide
       position="213254.16,50667.711"
       orientation="1,0"
       id="guide914"
       inkscape:locked="false" />
    <sodipodi:guide
       position="116416.67,55694.795"
       orientation="0,1"
       id="guide833"
       inkscape:locked="false" />
    <sodipodi:guide
       position="115887.5,10847.917"
       orientation="0,1"
       id="guide835"
       inkscape:locked="false" />
    <sodipodi:guide
       position="49477.083,33205.21"
       orientation="0,1"
       id="guide858"
       inkscape:locked="false" />
    <sodipodi:guide
       position="52056.77,34197.398"
       orientation="0,1"
       id="guide860"
       inkscape:locked="false" />
  </sodipodi:namedview>
  <metadata
     id="metadata5">
    <rdf:RDF>
      <cc:Work
         rdf:about="">
        <dc:format>image/svg+xml</dc:format>
        <dc:type
           rdf:resource="http://purl.org/dc/dcmitype/StillImage" />
        <dc:title />
      </cc:Work>
    </rdf:RDF>
  </metadata>
  <g
     inkscape:label="Capa 1"
     inkscape:groupmode="layer"
     id="layer1"
     transform="translate(0,131862.37)">
    <rect
       style="display:inline;opacity:1;fill:#0098d7;fill-opacity:1;fill-rule:evenodd;stroke:none;stroke-width:2300;stroke-linecap:round;stroke-linejoin:round;stroke-miterlimit:1.41420996;stroke-dasharray:none;stroke-dashoffset:0;stroke-opacity:1;paint-order:fill markers stroke"
       id="rect4485"
       width="264583.34"
       height="132291.67"
       x="5.6843419e-014"
       y="-164935.3"
       inkscape:export-xdpi="96"
       inkscape:export-ydpi="96" />
    <g
       id="g4499"
       transform="translate(281.51504,207.3192)" />
    <path
       style="opacity:1;fill:#34a385;fill-opacity:1;fill-rule:nonzero;stroke:none;stroke-width:1031.8762207;stroke-linecap:butt;stroke-linejoin:miter;stroke-miterlimit:4;stroke-dasharray:none;stroke-opacity:1;paint-order:markers stroke fill"
       d="M 53710.325,-124189.45 H 210664.81 c 1612.38,0 2910.43,1298.04 2910.43,2910.42 v 48418.802 c 0,1612.37 -1298.05,2910.42 -2910.43,2910.42 H 53710.325 c -1612.373,0 -2910.42,-1298.05 -2910.42,-2910.42 v -48418.802 c 0,-1612.38 1298.047,-2910.42 2910.42,-2910.42 z"
       id="rect837-6-1"
       inkscape:connector-curvature="0"
       inkscape:export-xdpi="96"
       inkscape:export-ydpi="96" />
    <path
       style="opacity:1;fill:#40c69e;fill-opacity:1;fill-rule:nonzero;stroke:none;stroke-width:1031.875;stroke-linecap:butt;stroke-linejoin:miter;stroke-miterlimit:4;stroke-dasharray:none;stroke-opacity:1;paint-order:markers stroke fill"
       d="M 53710.413,-128158.2 H 210664.7 c 1612.38,0 2910.42,1298.04 2910.42,2910.41 v 48418.752 c 0,1612.371 -1298.04,2910.417 -2910.42,2910.417 H 53710.413 c -1612.371,0 -2910.417,-1298.046 -2910.417,-2910.417 v -48418.752 c 0,-1612.37 1298.046,-2910.41 2910.417,-2910.41 z"
       id="rect837"
       inkscape:connector-curvature="0"
       inkscape:export-xdpi="96"
       inkscape:export-ydpi="96" />
    <g
       aria-label="Click me! "
       style="font-style:normal;font-weight:normal;font-size:25400px;line-height:1.25;font-family:sans-serif;letter-spacing:0px;word-spacing:0px;fill:#000000;fill-opacity:1;stroke:none;stroke-width:264.58334351"
       id="text856"
       inkscape:export-xdpi="96"
       inkscape:export-ydpi="96">
      <path
         d="m 78589.737,-101054.3 q 0,-1625.6 558.801,-3225.8 584.199,-1625.6 1676.399,-2895.6 1092.2,-1270 2692.4,-2057.4 1600.201,-812.8 3632.201,-812.8 2413,0 4114.799,1092.2 1727.201,1092.2 2540,2844.8 l -1397,863.6 q -431.799,-889 -1066.799,-1498.6 -609.601,-609.6 -1320.801,-990.6 -711.199,-381 -1473.199,-533.4 -762,-177.8 -1498.601,-177.8 -1625.6,0 -2870.2,660.4 -1244.6,660.4 -2108.199,1727.2 -838.201,1066.8 -1270,2413 -431.801,1320.8 -431.801,2692.4 0,1498.603 508,2870.203 533.4,1371.6 1422.4,2438.4 914.401,1041.4 2133.6,1676.4 1244.6,609.6 2692.4,609.6 762,0 1549.401,-177.8 812.799,-203.2 1549.399,-609.6 762,-431.8 1397,-1041.4 635,-635 1066.8,-1524 l 1473.2,762 q -431.8,1016 -1219.2,1803.4 -787.4,762 -1752.6,1295.4 -965.2,533.4 -2057.4,812.8 -1066.8,279.4 -2108.199,279.4 -1854.201,0 -3403.601,-812.8 -1549.399,-812.8 -2667,-2108.2 -1117.6,-1320.8 -1752.6,-2971.8 -609.6,-1676.4 -609.6,-3403.603 z"
         style="font-style:normal;font-variant:normal;font-weight:normal;font-stretch:normal;font-family:Raleway;-inkscape-font-specification:Raleway;fill:#ffffff;fill-opacity:1;stroke-width:264.58334351"
         id="path830"
         inkscape:connector-curvature="0" />
      <path
         d="m 96917.028,-110452.3 h 1727.2 v 15544.803 q 0,736.6 406.4,1168.4 406.4,406.4 1143.002,406.4 279.4,0 660.4,-76.2 381,-76.2 711.2,-203.2 l 304.8,1397 q -482.6,203.2 -1193.8,330.2 -685.802,127 -1193.802,127 -1193.8,0 -1879.6,-660.4 -685.8,-685.8 -685.8,-1905 z"
         style="font-style:normal;font-variant:normal;font-weight:normal;font-stretch:normal;font-family:Raleway;-inkscape-font-specification:Raleway;fill:#ffffff;fill-opacity:1;stroke-width:264.58334351"
         id="path832"
         inkscape:connector-curvature="0" />
      <path
         d="M 103736.53,-91910.297 V -105143.7 h 1727.2 v 13233.403 z m 0,-16002.003 v -2540 h 1727.2 v 2540 z"
         style="font-style:normal;font-variant:normal;font-weight:normal;font-stretch:normal;font-family:Raleway;-inkscape-font-specification:Raleway;fill:#ffffff;fill-opacity:1;stroke-width:264.58334351"
         id="path834"
         inkscape:connector-curvature="0" />
      <path
         d="m 108378.38,-98565.097 q 0,-1397 482.6,-2641.603 482.6,-1244.6 1346.2,-2159 889,-939.8 2108.2,-1473.2 1219.2,-533.4 2692.4,-533.4 1879.6,0 3276.6,863.6 1397,838.2 2108.2,2286 l -1676.4,533.4 q -558.8,-1016 -1574.8,-1574.8 -990.6,-584.2 -2209.8,-584.2 -1016,0 -1905,406.4 -863.6,406.4 -1524,1117.6 -635,685.8 -1016,1651 -355.6,965.203 -355.6,2108.203 0,1117.6 381,2108.2 381,990.6 1041.4,1727.2 660.4,711.2 1524,1143 889,406.4 1879.6,406.4 635,0 1244.6,-177.8 635,-177.8 1168.4,-482.6 533.4,-330.2 914.4,-736.6 381,-406.4 533.4,-863.6 l 1701.8,508 q -279.4,711.2 -812.8,1320.8 -533.4,584.2 -1270,1041.4 -711.2,431.8 -1600.2,660.4 -863.6,254 -1803.4,254 -1447.8,0 -2667,-533.4 -1219.2,-558.8 -2108.2,-1498.6 -889,-965.2 -1397,-2209.8 -482.6,-1244.6 -482.6,-2667 z"
         style="font-style:normal;font-variant:normal;font-weight:normal;font-stretch:normal;font-family:Raleway;-inkscape-font-specification:Raleway;fill:#ffffff;fill-opacity:1;stroke-width:264.58334351"
         id="path836"
         inkscape:connector-curvature="0" />
      <path
         d="m 132681.82,-91910.297 -4876.8,-6781.8 -2844.8,2641.6 v 4140.2 h -1727.2 V -110452.3 h 1727.2 v 12598.403 l 7442.2,-7264.403 h 1955.8 l -5410.2,5410.203 5613.4,7797.8 z"
         style="font-style:normal;font-variant:normal;font-weight:normal;font-stretch:normal;font-family:Raleway;-inkscape-font-specification:Raleway;fill:#ffffff;fill-opacity:1;stroke-width:264.58334351"
         id="path838"
         inkscape:connector-curvature="0" />
      <path
         d="m 162860.98,-91910.297 h -1727.2 v -7391.4 q 0,-2311.403 -736.6,-3403.603 -736.6,-1092.2 -2184.4,-1092.2 -762,0 -1447.8,279.4 -660.4,279.4 -1244.6,787.4 -558.8,508 -990.6,1219.2 -431.8,685.8 -660.4,1524.003 v 8077.2 h -1727.2 v -7391.4 q 0,-2362.203 -711.2,-3429.003 -711.2,-1066.8 -2184.4,-1066.8 -1498.6,0 -2667,1041.4 -1168.4,1041.4 -1676.4,2743.2 v 8102.603 h -1727.2 V -105143.7 h 1574.8 v 2997.2 q 812.8,-1524 2133.6,-2362.2 1320.8,-863.6 2921,-863.6 1676.4,0 2667,939.8 1016,939.8 1244.6,2463.8 1854.2,-3403.6 5105.4,-3403.6 1117.6,0 1879.6,406.4 787.4,406.4 1244.6,1168.4 482.6,736.6 685.8,1803.4 228.6,1041.4 228.6,2336.803 z"
         style="font-style:normal;font-variant:normal;font-weight:normal;font-stretch:normal;font-family:Raleway;-inkscape-font-specification:Raleway;fill:#ffffff;fill-opacity:1;stroke-width:264.58334351"
         id="path840"
         inkscape:connector-curvature="0" />
      <path
         d="m 172257,-91656.297 q -1447.8,0 -2667,-533.4 -1193.8,-558.8 -2082.8,-1498.6 -889,-965.2 -1397,-2209.8 -482.6,-1244.6 -482.6,-2667 0,-1397 482.6,-2616.203 508,-1244.6 1371.6,-2159 889,-939.8 2108.2,-1473.2 1219.2,-558.8 2641.6,-558.8 1447.8,0 2641.6,558.8 1219.2,533.4 2082.8,1473.2 863.6,939.8 1346.2,2159 482.6,1219.203 482.6,2590.803 0,203.2 0,406.4 0,203.2 -25.4,279.4 H 167431 q 76.2,1066.8 482.6,1981.2 431.8,889 1092.2,1549.4 660.4,660.4 1498.6,1041.4 863.6,355.6 1828.8,355.6 635,0 1270,-177.8 635,-177.8 1168.4,-482.6 533.4,-304.8 965.2,-736.6 431.8,-457.2 660.4,-990.6 l 1498.6,406.4 q -304.8,736.6 -863.6,1346.2 -558.8,584.2 -1295.4,1041.4 -736.6,431.8 -1625.6,660.4 -889,254 -1854.2,254 z m 4876.8,-7569.2 q -76.2,-1066.803 -508,-1930.403 -406.4,-889 -1066.8,-1524 -635,-635 -1498.6,-990.6 -838.2,-355.6 -1803.4,-355.6 -965.2,0 -1828.8,355.6 -863.6,355.6 -1524,990.6 -635,635 -1041.4,1524 -381,889 -457.2,1930.403 z"
         style="font-style:normal;font-variant:normal;font-weight:normal;font-stretch:normal;font-family:Raleway;-inkscape-font-specification:Raleway;fill:#ffffff;fill-opacity:1;stroke-width:264.58334351"
         id="path842"
         inkscape:connector-curvature="0" />
      <path
         d="M 181906.22,-97701.497 V -110122.1 h 1727.2 v 12420.603 z m 0,5791.2 v -2844.8 h 1727.2 v 2844.8 z"
         style="font-style:normal;font-variant:normal;font-weight:normal;font-stretch:normal;font-family:Raleway;-inkscape-font-specification:Raleway;fill:#ffffff;fill-opacity:1;stroke-width:264.58334351"
         id="path844"
         inkscape:connector-curvature="0" />
    </g>
  </g>
</svg>
